<svg version="1.1" id="Layer_1" xmlns="http://www.w3.org/2000/svg" xmlns:xlink="http://www.w3.org/1999/xlink" x="0px" y="0px"
	 width="100%" viewBox="0 0 151 110" enable-background="new 0 0 151 110" xml:space="preserve">
<path fill="none" opacity="1.000000" stroke="#000000" stroke-linecap="round" stroke-linejoin="round" stroke-width="3.000000"
	d="
M86.500000,51.750000 
	C87.092888,52.423573 87.760674,52.175171 88.504044,52.019287 
	C93.891380,50.889565 94.357384,51.179455 94.471451,56.500610 
	C94.572647,61.221672 97.602516,65.471916 96.118523,70.534744 
	C95.114433,73.960312 94.136909,77.422318 92.400085,80.442543 
	C90.103081,84.436882 85.956711,86.014366 81.500816,85.946342 
	C72.000839,85.801323 62.507992,86.196739 52.990795,85.664635 
	C47.033058,85.331543 44.084393,81.953300 42.118820,77.448158 
	C40.227013,73.112091 39.045662,68.396606 39.500000,63.500000 
"/>
<path fill="none" opacity="1.000000" stroke="#000000" stroke-linecap="round" stroke-linejoin="round" stroke-width="2.000000"
	d="
M40.500000,63.000000 
	C42.354080,61.082317 44.482548,62.457233 46.419426,61.873371 
	C48.126465,66.220886 47.242508,70.160072 47.556034,74.250000 
	C50.649181,74.250000 53.824574,74.250000 57.250000,74.250000 
	C57.250000,70.012344 57.250000,65.506172 57.250000,60.385960 
	C53.998829,61.142086 50.401649,59.267971 47.000000,61.500000 
"/>
<path fill="none" opacity="1.000000" stroke="#000000" stroke-linecap="round" stroke-linejoin="round" stroke-width="3.000000"
	d="
M43.500000,48.000000 
	C42.638897,48.750031 41.657310,48.998203 40.501347,49.038555 
	C38.956738,49.092476 38.886230,50.321453 39.009216,51.499039 
	C39.131809,52.672806 39.878674,53.046150 41.000298,53.009010 
	C50.830688,52.683491 60.683178,53.626690 70.497879,52.481796 
	C70.681496,52.460381 70.833344,52.166676 71.000000,52.000015 
	C71.184792,48.771271 67.930656,49.411346 66.500000,48.000000 
"/>
<path fill="none" opacity="1.000000" stroke="#000000" stroke-linecap="round" stroke-linejoin="round" stroke-width="2.000000"
	d="
M76.000000,30.000000 
	C77.105042,35.304008 76.142204,40.672638 76.594200,46.250000 
	C81.666664,46.250000 86.833336,46.250000 91.918449,46.250000 
	C93.350021,41.914669 91.626793,37.583477 93.000000,33.500000 
"/>
<path fill="none" opacity="1.000000" stroke="#000000" stroke-linecap="round" stroke-linejoin="round" stroke-width="3.000000"
	d="
M94.500000,61.000000 
	C93.563156,62.036247 92.470688,62.646889 90.999222,62.508247 
	C80.834038,61.550465 70.666664,61.868923 60.500000,62.500000 
"/>
<path fill="none" opacity="1.000000" stroke="#000000" stroke-linecap="round" stroke-linejoin="round" stroke-width="3.000000"
	d="
M94.000000,30.500002 
	C93.666664,30.000002 93.443443,29.336002 92.982300,29.026361 
	C89.756783,26.860573 75.187500,27.888012 72.524002,30.524252 
	C71.216057,31.818819 72.171623,32.564682 73.500000,33.000000 
"/>
<path fill="none" opacity="1.000000" stroke="#000000" stroke-linecap="round" stroke-linejoin="round" stroke-width="2.000000"
	d="
M45.500000,46.500000 
	C45.500000,44.333332 45.471859,42.166172 45.510025,40.000175 
	C45.534908,38.587837 45.103477,37.729858 43.500000,38.000000 
"/>
<path fill="none" opacity="1.000000" stroke="#000000" stroke-linecap="round" stroke-linejoin="round" stroke-width="3.000000"
	d="
M54.000000,46.000000 
	C56.509830,46.629803 58.152115,50.512897 61.500000,48.000000 
"/>
</svg>