<svg version="1.1" id="Layer_1" xmlns="http://www.w3.org/2000/svg" xmlns:xlink="http://www.w3.org/1999/xlink" x="0px" y="0px"
	 width="100%" viewBox="0 0 154 115" enable-background="new 0 0 154 115" xml:space="preserve">
<path fill="none" opacity="1.000000" stroke="#000000" stroke-linecap="round" stroke-linejoin="round" stroke-width="3.000000"
	d="
M106.500000,63.000000 
	C106.500000,58.666668 106.582458,54.331348 106.478302,50.000523 
	C106.358704,45.027576 105.286537,44.009369 100.499992,44.003944 
	C89.500008,43.991486 78.499992,43.991489 67.500008,44.003948 
	C62.713467,44.009365 61.641304,45.027573 61.521702,50.000523 
	C61.417542,54.331348 61.500000,58.666668 61.500000,63.000000 
"/>
<path fill="none" opacity="1.000000" stroke="#000000" stroke-linecap="round" stroke-linejoin="round" stroke-width="3.000000"
	d="
M58.500000,80.000000 
	C57.450294,78.801903 55.552235,77.852158 56.074757,76.021339 
	C56.803493,73.467987 58.963432,75.025803 60.500050,75.022278 
	C76.333305,74.985977 92.166672,75.006081 107.999962,74.978844 
	C108.666916,74.977692 109.333336,74.666664 110.000000,74.500000 
"/>
<path fill="none" opacity="1.000000" stroke="#000000" stroke-linecap="round" stroke-linejoin="round" stroke-width="3.000000"
	d="
M107.500000,80.000000 
	C106.583206,78.792114 105.260521,79.000725 104.000000,79.000626 
	C90.666664,78.999603 77.333336,78.999611 64.000000,79.000633 
	C62.739479,79.000725 61.416794,78.792114 60.500000,80.000000 
"/>
<path fill="none" opacity="1.000000" stroke="#000000" stroke-linecap="round" stroke-linejoin="round" stroke-width="3.000000"
	d="
M82.000000,63.000000 
	C82.000000,56.186844 81.854584,56.041428 75.000000,55.999996 
	C65.895866,55.944969 65.067116,56.525097 65.000000,63.000000 
"/>
<path fill="none" opacity="1.000000" stroke="#000000" stroke-linecap="round" stroke-linejoin="round" stroke-width="3.000000"
	d="
M103.000000,63.000000 
	C102.941292,57.336372 101.639015,56.033211 95.999992,56.000813 
	C95.000031,55.995068 93.999969,55.994987 93.000008,56.000801 
	C86.145424,56.040676 86.000000,56.186836 86.000000,63.000000 
"/>
<path fill="none" opacity="1.000000" stroke="#000000" stroke-linecap="round" stroke-linejoin="round" stroke-width="3.000000"
	d="
M58.000000,74.000000 
	C58.000000,63.756687 57.998901,63.865635 68.500290,63.971451 
	C80.665718,64.094040 92.850052,64.363731 104.991081,63.805840 
	C109.333054,63.606323 110.000580,65.095367 110.014641,68.499939 
	C110.026268,71.312752 109.246513,74.355042 112.034065,76.330383 
	C111.772888,78.099686 110.488335,78.944046 109.500000,80.000000 
"/>
</svg>