<svg version="1.1" id="Layer_1" xmlns="http://www.w3.org/2000/svg" xmlns:xlink="http://www.w3.org/1999/xlink" x="0px" y="0px"
	 width="100%" viewBox="0 0 143 108" enable-background="new 0 0 143 108" xml:space="preserve">
<path fill="none" opacity="1.000000" stroke="#000000" stroke-linecap="round" stroke-linejoin="round" stroke-width="3.000000"
	d="
M96.000000,42.500000 
	C94.842705,34.653347 91.936653,31.999994 84.500000,32.000000 
	C83.000000,32.000000 81.496300,32.069126 80.000587,31.988995 
	C68.696487,31.383377 68.599365,34.022984 66.046585,44.011906 
	C64.826393,48.786503 65.475014,53.819557 63.164021,58.579632 
	C61.125919,62.777603 63.955826,65.434196 69.002052,65.025291 
	C70.554703,64.899475 72.219078,64.680809 73.500000,66.000000 
"/>
<path fill="none" opacity="1.000000" stroke="#000000" stroke-linecap="round" stroke-linejoin="round" stroke-width="3.000000"
	d="
M89.500000,66.000000 
	C91.055557,64.722252 92.686234,65.231369 94.509827,65.354820 
	C97.224701,65.538605 99.883759,64.802475 100.051262,61.002258 
	C100.202499,57.570995 98.935318,55.143318 95.498558,55.084759 
	C88.162697,54.959766 80.872482,52.944027 73.500000,54.500000 
"/>
<path fill="none" opacity="1.000000" stroke="#000000" stroke-linecap="round" stroke-linejoin="round" stroke-width="3.000000"
	d="
M67.500000,66.000000 
	C67.850204,71.085022 65.961243,75.917511 65.713730,80.986023 
	C65.619995,82.905441 65.115211,84.542870 65.902657,86.538414 
	C66.555367,88.192505 66.121307,89.989975 63.500000,89.500000 
"/>
<path fill="none" opacity="1.000000" stroke="#000000" stroke-linecap="round" stroke-linejoin="round" stroke-width="3.000000"
	d="
M95.000000,66.000000 
	C94.927467,71.425735 97.283615,76.537979 97.023659,82.001129 
	C96.889137,84.828064 97.000000,87.666664 97.000000,90.500000 
"/>
<path fill="none" opacity="1.000000" stroke="#000000" stroke-linecap="round" stroke-linejoin="round" stroke-width="3.000000"
	d="
M74.000000,69.000000 
	C71.116905,72.493156 70.322441,76.897202 69.129036,81.037193 
	C68.500839,83.216423 67.732071,85.166145 66.500000,87.000000 
"/>
<path fill="none" opacity="1.000000" stroke="#000000" stroke-linecap="round" stroke-linejoin="round" stroke-width="3.000000"
	d="
M96.500000,45.500000 
	C96.586655,48.692635 98.368866,51.706787 97.500000,55.000000 
"/>
<path fill="none" opacity="1.000000" stroke="#000000" stroke-linecap="round" stroke-linejoin="round" stroke-width="3.000000"
	d="
M92.500000,77.500000 
	C93.525391,79.935982 93.403130,82.754509 95.000000,85.000000 
"/>
<path fill="none" opacity="1.000000" stroke="#000000" stroke-linecap="round" stroke-linejoin="round" stroke-width="3.000000"
	d="
M70.500000,55.000000 
	C68.666664,55.166668 66.833336,55.333332 65.000000,55.500000 
"/>
</svg>