<svg version="1.1" id="Layer_1" xmlns="http://www.w3.org/2000/svg" xmlns:xlink="http://www.w3.org/1999/xlink" x="0px" y="0px"
	 width="100%" viewBox="0 0 181 118" enable-background="new 0 0 181 118" xml:space="preserve">
<path fill="none" opacity="1.000000" stroke="#000000" stroke-linecap="round" stroke-linejoin="round" stroke-width="3.000000"
	d="
M115.500000,89.000000 
	C117.315628,87.787605 118.861702,86.783524 119.108032,84.009590 
	C120.456665,68.822800 120.561409,53.666531 118.995659,38.500450 
	C118.924873,37.814781 119.330589,37.000687 117.649117,36.000000 
	C109.339394,36.000000 100.169662,36.014290 91.000038,35.987587 
	C89.229042,35.982430 88.233360,36.746704 88.000000,38.500000 
"/>
<path fill="none" opacity="1.000000" stroke="#000000" stroke-linecap="round" stroke-linejoin="round" stroke-width="3.000000"
	d="
M106.500000,65.500000 
	C106.330223,59.933525 105.429558,59.015915 99.999992,59.004093 
	C92.500023,58.987762 84.999962,58.984814 77.500015,59.004597 
	C70.999954,59.021748 71.000000,59.039268 71.000000,65.500000 
"/>
<path fill="none" opacity="1.000000" stroke="#000000" stroke-linecap="round" stroke-linejoin="round" stroke-width="3.000000"
	d="
M103.500000,80.000000 
	C94.706421,77.726303 85.886391,76.854691 76.500000,79.617897 
	C76.500000,78.036919 76.871643,76.393387 76.412628,75.029404 
	C75.729317,72.998924 76.348122,69.670631 72.499550,69.994606 
	C70.081947,70.198120 66.705299,69.008720 66.157639,72.524559 
	C65.766464,75.035797 64.605331,78.620888 68.518234,79.946167 
	C70.162003,80.502907 71.310059,81.274376 70.955605,82.990829 
	C70.158897,86.848808 73.014496,87.739128 75.500000,89.000000 
"/>
<path fill="none" opacity="1.000000" stroke="#000000" stroke-linecap="round" stroke-linejoin="round" stroke-width="3.000000"
	d="
M101.500000,90.500000 
	C99.430733,88.374466 96.803612,87.741005 94.003029,88.029427 
	C88.507812,88.595360 82.834702,86.576988 77.438675,89.382034 
	C76.465492,89.887939 76.748337,90.568062 76.250000,91.000000 
"/>
<path fill="none" opacity="1.000000" stroke="#000000" stroke-linecap="round" stroke-linejoin="round" stroke-width="3.000000"
	d="
M89.500000,52.500000 
	C88.562805,49.227051 89.225937,45.794071 88.898781,42.000000 
	C83.166664,42.000000 77.833336,42.000000 72.691048,42.000000 
	C71.207031,45.886719 70.660210,49.380028 71.072624,53.025524 
	C73.711838,54.366035 76.793083,52.592098 79.500000,54.000000 
"/>
<path fill="none" opacity="1.000000" stroke="#000000" stroke-linecap="round" stroke-linejoin="round" stroke-width="3.000000"
	d="
M100.500000,79.000000 
	C101.894188,77.039688 100.348785,74.645477 101.844521,72.396591 
	C103.395905,70.064056 105.465065,69.496483 107.487358,69.658142 
	C109.443199,69.814491 111.378876,71.399933 111.926895,73.518906 
	C112.459663,75.578896 112.197365,77.787621 109.988464,78.978600 
	C107.543221,80.296989 106.236877,81.916405 106.351959,85.005516 
	C106.423088,86.914932 104.124954,87.958290 102.500000,89.000000 
"/>
<path fill="none" opacity="1.000000" stroke="#000000" stroke-linecap="round" stroke-linejoin="round" stroke-width="3.000000"
	d="
M104.000000,37.000000 
	C103.780846,43.165249 104.502548,49.355927 103.500000,55.500000 
"/>
<path fill="none" opacity="1.000000" stroke="#000000" stroke-linecap="round" stroke-linejoin="round" stroke-width="2.000000"
	d="
M88.500000,53.000000 
	C85.923538,54.706692 81.934212,51.609653 80.000000,55.500000 
"/>
</svg>