<svg version="1.1" id="Layer_1" xmlns="http://www.w3.org/2000/svg" xmlns:xlink="http://www.w3.org/1999/xlink" x="0px" y="0px"
	 width="100%" viewBox="0 0 132 110" enable-background="new 0 0 132 110" xml:space="preserve">
<path fill="none" opacity="1.000000" stroke="#000000" stroke-linecap="round" stroke-linejoin="round" stroke-width="2.000000"
	d="
M97.500000,84.000000 
	C97.500000,71.333336 97.526703,58.666588 97.488884,46.000034 
	C97.469597,39.538734 92.401154,32.996166 86.000000,31.000002 
	C79.154099,28.865141 71.346672,30.969212 67.520500,36.015545 
	C67.360023,36.227203 67.500000,36.666668 67.500000,37.000000 
"/>
<path fill="none" opacity="1.000000" stroke="#000000" stroke-linecap="round" stroke-linejoin="round" stroke-width="3.000000"
	d="
M82.500000,85.000000 
	C78.258392,84.623039 78.688713,81.064529 78.607376,78.496597 
	C78.428238,72.840889 78.683739,67.156853 79.054581,61.503582 
	C79.287125,57.958668 78.038597,56.782646 74.497108,56.931026 
	C68.502998,57.182171 62.490742,57.000000 56.000000,57.000000 
	C56.000000,64.492188 56.000000,71.496094 56.000000,78.500000 
"/>
<path fill="none" opacity="1.000000" stroke="#000000" stroke-linecap="round" stroke-linejoin="round" stroke-width="3.000000"
	d="
M67.000000,37.500000 
	C63.486298,38.986298 60.411659,40.911659 59.307972,45.257565 
	C64.429443,47.283470 69.457047,46.621960 74.815285,45.683022 
	C74.701759,40.615128 70.674210,39.430901 67.500000,37.500000 
"/>
<path fill="none" opacity="1.000000" stroke="#000000" stroke-linecap="round" stroke-linejoin="round" stroke-width="3.000000"
	d="
M78.000000,79.000000 
	C71.000000,79.000000 64.000000,79.000000 57.000652,79.000214 
	C55.481918,80.160637 56.080009,82.026672 55.500000,83.500000 
"/>
<path fill="none" opacity="1.000000" stroke="#000000" stroke-linecap="round" stroke-linejoin="round" stroke-width="3.000000"
	d="
M52.000000,85.500000 
	C53.992229,84.244102 56.052505,83.877029 58.500538,83.888878 
	C65.329399,83.921921 72.189278,84.593735 79.000000,83.500000 
"/>
<path fill="none" opacity="1.000000" stroke="#000000" stroke-linecap="round" stroke-linejoin="round" stroke-width="3.000000"
	d="
M80.000000,66.500000 
	C82.166664,65.651703 84.403648,64.305542 86.478378,66.520256 
	C88.227066,68.386932 88.761147,70.703918 87.437828,72.963593 
	C86.711304,74.204193 86.883789,75.412582 87.066780,76.488640 
	C87.823112,80.936096 86.303795,84.203377 82.500000,86.500000 
"/>
<path fill="none" opacity="1.000000" stroke="#000000" stroke-linecap="round" stroke-linejoin="round" stroke-width="3.000000"
	d="
M78.000000,72.500000 
	C71.022385,73.606697 63.997166,72.714355 57.000000,73.000000 
"/>
<path fill="none" opacity="1.000000" stroke="#000000" stroke-linecap="round" stroke-linejoin="round" stroke-width="2.000000"
	d="
M54.500000,66.500000 
	C52.098618,65.713951 49.806927,64.681084 47.460495,66.959312 
	C45.214054,69.140450 46.603474,71.302849 47.019291,73.496346 
	C47.244347,74.683533 48.031239,75.864891 47.933483,76.994240 
	C47.604805,80.791420 48.177330,84.127647 51.500000,86.500000 
"/>
<path fill="none" opacity="1.000000" stroke="#000000" stroke-linecap="round" stroke-linejoin="round" stroke-width="6.000000"
	d="
M103.000000,85.750000 
	C99.196739,84.283226 95.343910,85.096954 91.500000,85.500000 
"/>
</svg>